<svg width="418" height="376" viewBox="0 0 418 376" fill="none" xmlns="http://www.w3.org/2000/svg">
<path d="M375.667 83.8333H292.333V42.1667L250.667 0.5H167.333L125.667 42.1667V83.8333H42.3333C19.4166 83.8333 0.666626 102.583 0.666626 125.5V229.667C0.666626 245.292 8.99996 258.417 21.5 265.708V333.833C21.5 356.958 40.0416 375.5 63.1666 375.5H354.833C377.958 375.5 396.5 356.958 396.5 333.833V265.5C408.792 258.208 417.333 244.875 417.333 229.667V125.5C417.333 102.583 398.583 83.8333 375.667 83.8333ZM167.333 42.1667H250.667V83.8333H167.333V42.1667ZM42.3333 125.5H375.667V229.667H271.5V167.167H146.5V229.667H42.3333V125.5ZM229.833 250.5H188.167V208.833H229.833V250.5ZM354.833 333.833H63.1666V271.333H146.5V292.167H271.5V271.333H354.833V333.833Z" fill="white"/>
</svg>
