<svg width="24" height="24" viewBox="0 0 24 24" fill="none" xmlns="http://www.w3.org/2000/svg">
<g id="lets-icons:comment">
<g id="Group">
<path id="Vector" d="M5 8.8C5 7.943 5 7.361 5.038 6.911C5.073 6.473 5.138 6.248 5.218 6.092L3.436 5.184C3.189 5.669 3.09 6.186 3.044 6.748C3 7.298 3 7.976 3 8.8H5ZM5 11V8.8H3V11H5ZM3 11V16H5V11H3ZM3 16V18.914H5V16H3ZM3 18.914C3 20.205 4.562 20.852 5.475 19.939L4.061 18.525C4.13792 18.448 4.23594 18.3956 4.34265 18.3744C4.44936 18.3532 4.55998 18.364 4.6605 18.4057C4.76102 18.4473 4.84693 18.5179 4.90737 18.6083C4.9678 18.6988 5.00004 18.8052 5 18.914H3ZM5.475 19.939L8.415 17L7 15.586L4.061 18.525L5.475 19.939ZM15.2 15H8.414V17H15.2V15ZM17.908 14.782C17.752 14.862 17.528 14.927 17.089 14.962C16.639 14.999 16.057 15 15.2 15V17C16.024 17 16.701 17 17.252 16.956C17.814 16.91 18.331 16.811 18.816 16.564L17.908 14.782ZM18.782 13.908C18.5903 14.2843 18.2843 14.5903 17.908 14.782L18.816 16.564C19.5686 16.1805 20.1805 15.5686 20.564 14.816L18.782 13.908ZM19 11.2C19 12.057 19 12.639 18.962 13.089C18.927 13.527 18.862 13.752 18.782 13.908L20.564 14.816C20.811 14.331 20.91 13.814 20.956 13.252C21.001 12.702 21 12.024 21 11.2H19ZM19 8.8V11.2H21V8.8H19ZM18.782 6.092C18.862 6.248 18.927 6.472 18.962 6.911C19 7.361 19 7.943 19 8.8H21C21 7.976 21 7.299 20.956 6.748C20.91 6.186 20.811 5.669 20.564 5.184L18.782 6.092ZM17.908 5.218C18.2843 5.40974 18.5903 5.71569 18.782 6.092L20.564 5.184C20.1805 4.43139 19.5686 3.81949 18.816 3.436L17.908 5.218ZM15.2 5C16.057 5 16.639 5 17.089 5.038C17.527 5.073 17.752 5.138 17.908 5.218L18.816 3.436C18.331 3.189 17.814 3.09 17.252 3.044C16.702 3 16.024 3 15.2 3V5ZM8.8 5H15.2V3H8.8V5ZM6.092 5.218C6.248 5.138 6.472 5.073 6.911 5.038C7.361 5 7.943 5 8.8 5V3C7.976 3 7.299 3 6.748 3.044C6.186 3.09 5.669 3.189 5.184 3.436L6.092 5.218ZM5.218 6.092C5.40974 5.71569 5.71569 5.40974 6.092 5.218L5.184 3.436C4.43139 3.81949 3.81949 4.43139 3.436 5.184L5.218 6.092ZM8.414 17V15C7.88361 15.0001 7.37499 15.2109 7 15.586L8.414 17Z" fill="white"/>
<path id="Vector_2" d="M8 8H16M8 12H13" stroke="white" stroke-width="2" stroke-linecap="round" stroke-linejoin="round"/>
</g>
</g>
</svg>
