<svg width="416" height="416" viewBox="0 0 416 416" fill="none" xmlns="http://www.w3.org/2000/svg">
<path d="M176.75 20.5H51.75C43.462 20.5 35.5134 23.7924 29.6529 29.6529C23.7924 35.5134 20.5 43.462 20.5 51.75V280.917C20.5 289.205 23.7924 297.153 29.6529 303.014C35.5134 308.874 43.462 312.167 51.75 312.167H364.25C372.538 312.167 380.487 308.874 386.347 303.014C392.208 297.153 395.5 289.205 395.5 280.917V176.75M208 312.167V395.5" stroke="white" stroke-width="40.4404" stroke-linecap="round" stroke-linejoin="round"/>
<path d="M291.333 20.5L249.667 62.1667L291.333 103.833M353.833 20.5L395.5 62.1667L353.833 103.833M103.833 395.5H312.167" stroke="white" stroke-width="40.4404" stroke-linecap="round" stroke-linejoin="round"/>
</svg>
