<svg width="32" height="32" viewBox="0 0 32 32" fill="none" xmlns="http://www.w3.org/2000/svg">
<g id="Course">
<g id="Group">
<path id="Vector" d="M17.184 14.8462H21.7994M17.184 21.2505H21.7994M26.3077 26.1538C26.3077 26.6435 26.1132 27.1131 25.767 27.4593C25.4207 27.8055 24.9512 28 24.4615 28H7.84615C7.35652 28 6.88695 27.8055 6.54073 27.4593C6.19451 27.1131 6 26.6435 6 26.1538V5.84615C6 5.35652 6.19451 4.88695 6.54073 4.54073C6.88695 4.1945 7.35652 4 7.84615 4H18.1588C18.6484 4.0001 19.1179 4.19468 19.464 4.54092L25.7668 10.8437C26.113 11.1898 26.3076 11.6593 26.3077 12.1489V26.1538Z" stroke="#E7CDAF" stroke-width="2.21429" stroke-linecap="round" stroke-linejoin="round"/>
<path id="Vector_2" d="M10.0449 21.1453L11.592 22.6923L14.1711 19.0831M10.0449 14.6265L11.592 16.1736L14.1711 12.5643" stroke="#E7CDAF" stroke-width="2.21429" stroke-linecap="round" stroke-linejoin="round"/>
</g>
</g>
</svg>
