<svg width="32" height="32" viewBox="0 0 32 32" fill="none" xmlns="http://www.w3.org/2000/svg">
<g id="Course">
<path id="Vector" fill-rule="evenodd" clip-rule="evenodd" d="M6.74301 4.75429C7.21866 4.27191 7.86397 4.0006 8.53706 4H17.9931C18.6661 4.0006 19.3115 4.27191 19.7871 4.75429L25.5653 10.6069C26.0415 11.0886 26.3094 11.7422 26.31 12.424V25.4286C26.31 26.1106 26.0425 26.7646 25.5664 27.2468C25.0903 27.7291 24.4446 28 23.7712 28H8.53875C7.86543 28 7.21969 27.7291 6.74358 27.2468C6.26747 26.7646 6 26.1106 6 25.4286V6.57143C6 5.88914 6.26572 5.23429 6.74301 4.75429ZM14.6504 11.7606C14.7863 11.8586 14.9018 11.9829 14.9902 12.1262C15.0787 12.2695 15.1384 12.4291 15.1659 12.5958C15.1934 12.7625 15.1882 12.9331 15.1505 13.0977C15.1129 13.2624 15.0436 13.4179 14.9466 13.5554L12.5821 16.9086C12.4749 17.0603 12.3364 17.1866 12.1761 17.2786C12.0159 17.3706 11.8378 17.4263 11.6542 17.4416C11.4707 17.4569 11.286 17.4316 11.113 17.3674C10.9401 17.3032 10.783 17.2016 10.6527 17.0697L9.23437 15.6331C9.01015 15.3894 8.88808 15.067 8.89388 14.734C8.89968 14.4009 9.0329 14.0831 9.26547 13.8475C9.49804 13.6119 9.81181 13.477 10.1407 13.4711C10.4695 13.4653 10.7878 13.5889 11.0284 13.816L11.3872 14.1777L12.88 12.0623C13.0755 11.7848 13.3719 11.5972 13.7039 11.541C14.0359 11.4847 14.3763 11.5626 14.6504 11.7606ZM16.2582 14.9269C16.2582 14.5859 16.392 14.2588 16.63 14.0177C16.8681 13.7766 17.191 13.6411 17.5276 13.6411H21.7589C22.0955 13.6411 22.4184 13.7766 22.6565 14.0177C22.8945 14.2588 23.0282 14.5859 23.0282 14.9269C23.0282 15.2678 22.8945 15.5949 22.6565 15.836C22.4184 16.0771 22.0955 16.2126 21.7589 16.2126H17.5276C17.191 16.2126 16.8681 16.0771 16.63 15.836C16.392 15.5949 16.2582 15.2678 16.2582 14.9269ZM16.2582 21.7309C16.2582 21.3899 16.392 21.0628 16.63 20.8217C16.8681 20.5806 17.191 20.4451 17.5276 20.4451H21.7589C22.0955 20.4451 22.4184 20.5806 22.6565 20.8217C22.8945 21.0628 23.0282 21.3899 23.0282 21.7309C23.0282 22.0719 22.8945 22.3989 22.6565 22.64C22.4184 22.8811 22.0955 23.0166 21.7589 23.0166H17.5276C17.191 23.0166 16.8681 22.8811 16.63 22.64C16.392 22.3989 16.2582 22.0719 16.2582 21.7309ZM14.9466 20.4657C15.0481 20.3287 15.1216 20.1724 15.1627 20.0062C15.2038 19.84 15.2116 19.6671 15.1858 19.4977C15.16 19.3284 15.101 19.166 15.0123 19.0201C14.9236 18.8741 14.8071 18.7476 14.6694 18.648C14.5318 18.5483 14.3759 18.4776 14.2108 18.4398C14.0458 18.4021 13.875 18.3981 13.7085 18.4282C13.5419 18.4583 13.383 18.5218 13.241 18.615C13.099 18.7082 12.9769 18.8292 12.8817 18.9709L11.3872 21.088L11.0284 20.7246C10.7878 20.4975 10.4695 20.3738 10.1407 20.3797C9.81181 20.3856 9.49804 20.5205 9.26547 20.7561C9.0329 20.9916 8.89968 21.3094 8.89388 21.6425C8.88808 21.9756 9.01015 22.298 9.23437 22.5417L10.6527 23.9783C10.783 24.1102 10.9401 24.2117 11.113 24.276C11.286 24.3402 11.4707 24.3655 11.6542 24.3502C11.8378 24.3348 12.0159 24.2792 12.1761 24.1872C12.3364 24.0951 12.4749 23.9689 12.5821 23.8171L14.9466 20.4657Z" fill="#ED993B"/>
</g>
</svg>
