<svg width="401" height="400" viewBox="0 0 401 400" fill="none" xmlns="http://www.w3.org/2000/svg">
<path d="M20.6664 378.208L153.25 245.624M320.208 186.666L280.521 305.75C279.884 307.654 278.799 309.377 277.355 310.774C275.912 312.17 274.154 313.198 272.229 313.77L28.9372 386.104C26.7453 386.755 24.4169 386.792 22.2053 386.212C19.9937 385.631 17.9837 384.455 16.394 382.812C14.8043 381.168 13.6958 379.12 13.1891 376.891C12.6825 374.661 12.7971 372.335 13.5205 370.166L92.5205 133.208C93.0867 131.506 94.0123 129.947 95.2345 128.635C96.4567 127.323 97.9469 126.289 99.6039 125.604L211.833 79.3953C214.115 78.453 216.624 78.2073 219.045 78.6893C221.466 79.1713 223.69 80.3593 225.437 82.1036L317.187 173.874C318.829 175.516 319.981 177.582 320.515 179.841C321.048 182.101 320.942 184.464 320.208 186.666Z" stroke="white" stroke-width="25.2752" stroke-linecap="round" stroke-linejoin="round"/>
<path d="M335.395 15.2916L384.645 64.5416C388.346 68.0824 391.303 72.3269 393.341 77.0258C395.379 81.7248 396.458 86.7835 396.515 91.9052C396.572 97.0269 395.605 102.108 393.671 106.851C391.737 111.594 388.875 115.903 385.253 119.525C381.631 123.146 377.323 126.008 372.58 127.942C367.837 129.876 362.755 130.843 357.634 130.786C352.512 130.73 347.453 129.651 342.754 127.612C338.055 125.574 333.811 122.618 330.27 118.917L280.999 69.6666C274.05 62.403 270.221 52.7071 270.332 42.6552C270.443 32.6033 274.486 22.9945 281.594 15.8863C288.702 8.77805 298.311 4.73557 308.363 4.62442C318.415 4.51328 328.132 8.34232 335.395 15.2916Z" fill="white" stroke="white" stroke-width="7.58257" stroke-linecap="round" stroke-linejoin="round"/>
<path d="M197.437 201.417C194.555 198.432 191.106 196.052 187.294 194.414C183.481 192.776 179.38 191.914 175.231 191.878C171.082 191.842 166.967 192.633 163.126 194.204C159.286 195.775 155.797 198.095 152.862 201.03C149.928 203.964 147.608 207.453 146.037 211.293C144.465 215.134 143.675 219.249 143.711 223.398C143.747 227.548 144.609 231.648 146.247 235.461C147.884 239.273 150.265 242.722 153.25 245.604C159.144 251.297 167.037 254.447 175.231 254.376C183.425 254.304 191.263 251.018 197.057 245.224C202.851 239.43 206.137 231.592 206.208 223.398C206.279 215.205 203.13 207.311 197.437 201.417Z" stroke="white" stroke-width="25.2752" stroke-linecap="round" stroke-linejoin="round"/>
</svg>
