<svg width="32" height="32" viewBox="0 0 32 32" fill="none" xmlns="http://www.w3.org/2000/svg">
<g id="Message">
<path id="Vector" fill-rule="evenodd" clip-rule="evenodd" d="M4 7.97725C4 6.51725 5.19333 5.33325 6.66667 5.33325H25.3333C26.8067 5.33325 28 6.51725 28 7.97725V19.8746C27.9988 20.2234 27.9288 20.5685 27.7941 20.8902C27.6594 21.2119 27.4625 21.5039 27.2148 21.7495C26.9672 21.995 26.6735 22.1894 26.3507 22.3213C26.0278 22.4533 25.6821 22.5203 25.3333 22.5186H16.5333L12.7107 26.1186C11.4373 27.3173 9.33333 26.4226 9.33333 24.6786V22.5186H6.66667C5.19333 22.5186 4 21.3346 4 19.8746V7.97725ZM11.608 13.0559C11.4839 12.9323 11.3368 12.8343 11.1748 12.7676C11.0129 12.7009 10.8394 12.6667 10.6643 12.667C10.4892 12.6673 10.3158 12.7021 10.1541 12.7694C9.99246 12.8367 9.84562 12.9352 9.722 13.0593C9.59838 13.1833 9.50041 13.3305 9.43368 13.4924C9.36694 13.6543 9.33275 13.8278 9.33306 14.0029C9.33337 14.1781 9.36817 14.3514 9.43548 14.5131C9.50279 14.6748 9.60128 14.8216 9.72533 14.9453C9.84939 15.0689 9.99658 15.1668 10.1585 15.2336C10.3204 15.3003 10.4939 15.3345 10.669 15.3342C10.8442 15.3339 11.0175 15.2991 11.1792 15.2318C11.3409 15.1645 11.4877 15.066 11.6113 14.9419C11.735 14.8179 11.8329 14.6707 11.8997 14.5088C11.9664 14.3468 12.0006 14.1734 12.0003 13.9982C12 13.8231 11.9652 13.6497 11.8979 13.4881C11.8305 13.3264 11.7321 13.1795 11.608 13.0559ZM15.0547 13.0586C15.2407 12.8717 15.478 12.7442 15.7366 12.6921C15.9951 12.6401 16.2633 12.6659 16.5072 12.7663C16.751 12.8667 16.9596 13.0371 17.1066 13.2561C17.2536 13.4751 17.3324 13.7327 17.3329 13.9964C17.3335 14.2601 17.2558 14.5181 17.1098 14.7377C16.9637 14.9573 16.7558 15.1286 16.5124 15.23C16.2689 15.3315 16.0009 15.3584 15.7421 15.3075C15.4834 15.2566 15.2455 15.13 15.0587 14.9439C14.8082 14.6944 14.667 14.3556 14.6663 14.0021C14.6655 13.6485 14.8052 13.3092 15.0547 13.0586ZM22.2747 13.0559C22.0241 12.8063 21.6847 12.6664 21.331 12.667C20.9773 12.6676 20.6383 12.8087 20.3887 13.0593C20.139 13.3098 19.9991 13.6492 19.9997 14.0029C20.0004 14.3566 20.1415 14.6956 20.392 14.9453C20.5161 15.0689 20.6632 15.1668 20.8252 15.2336C20.9871 15.3003 21.1606 15.3345 21.3357 15.3342C21.5108 15.3339 21.6842 15.2991 21.8459 15.2318C22.0075 15.1645 22.1544 15.066 22.278 14.9419C22.4016 14.8179 22.4996 14.6707 22.5663 14.5088C22.6331 14.3468 22.6672 14.1734 22.6669 13.9982C22.6666 13.8231 22.6318 13.6497 22.5645 13.4881C22.4972 13.3264 22.3987 13.1795 22.2747 13.0559Z" fill="#ED993B"/>
</g>
</svg>
