<svg width="32" height="32" viewBox="0 0 32 32" fill="none" xmlns="http://www.w3.org/2000/svg">
<g id="Message">
<path id="Vector" d="M16 14.6667V14.68M10.6667 14.6667V14.68M21.3333 14.6667V14.68M24 5.33334C25.0609 5.33334 26.0783 5.75477 26.8284 6.50492C27.5786 7.25506 28 8.27248 28 9.33334V20C28 21.0609 27.5786 22.0783 26.8284 22.8284C26.0783 23.5786 25.0609 24 24 24H17.3333L10.6667 28V24H8C6.93913 24 5.92172 23.5786 5.17157 22.8284C4.42143 22.0783 4 21.0609 4 20V9.33334C4 8.27248 4.42143 7.25506 5.17157 6.50492C5.92172 5.75477 6.93913 5.33334 8 5.33334H24Z" stroke="#E7CDAF" stroke-width="2.66667" stroke-linecap="round" stroke-linejoin="round"/>
</g>
</svg>
