<svg width="397" height="376" viewBox="0 0 397 376" fill="none" xmlns="http://www.w3.org/2000/svg">
<path d="M396.5 0.5V260.917C396.5 280.255 388.818 298.802 375.143 312.477C361.469 326.151 342.922 333.833 323.583 333.833C304.245 333.833 285.698 326.151 272.024 312.477C258.349 298.802 250.667 280.255 250.667 260.917C250.667 241.578 258.349 223.031 272.024 209.357C285.698 195.682 304.245 188 323.583 188C334.833 188 345.458 190.5 354.833 195.083V72.7917L146.5 117.167V302.583C146.5 321.922 138.818 340.469 125.143 354.143C111.469 367.818 92.9221 375.5 73.5834 375.5C54.2447 375.5 35.6981 367.818 22.0235 354.143C8.34902 340.469 0.666748 321.922 0.666748 302.583C0.666748 283.245 8.34902 264.698 22.0235 251.023C35.6981 237.349 54.2447 229.667 73.5834 229.667C84.8334 229.667 95.4584 232.167 104.833 236.75V63L396.5 0.5Z" fill="white"/>
</svg>
