<svg width="378" height="376" viewBox="0 0 378 376" fill="none" xmlns="http://www.w3.org/2000/svg">
<path d="M43.1672 375.5C25.4589 375.5 12.8755 367.604 5.41718 351.813C-2.04115 336.021 -0.221706 321.347 10.8755 307.792L126.501 167.167V42.1667H105.667C99.7644 42.1667 94.82 40.1667 90.8338 36.1667C86.8477 32.1667 84.8477 27.2222 84.8338 21.3333C84.82 15.4444 86.82 10.5 90.8338 6.5C94.8477 2.5 99.7922 0.5 105.667 0.5H272.334C278.237 0.5 283.188 2.5 287.188 6.5C291.188 10.5 293.181 15.4444 293.167 21.3333C293.153 27.2222 291.153 32.1736 287.167 36.1875C283.181 40.2014 278.237 42.1944 272.334 42.1667H251.501V167.167L367.126 307.792C378.237 321.333 380.063 336.007 372.605 351.813C365.146 367.618 352.556 375.514 334.834 375.5H43.1672ZM43.1672 333.833H334.834L209.834 181.75V42.1667H168.167V181.75L43.1672 333.833Z" fill="white"/>
</svg>
