<svg width="32" height="32" viewBox="0 0 32 32" fill="none" xmlns="http://www.w3.org/2000/svg">
<g id="Settings">
<g id="Mask group">
<mask id="mask0_48_278" style="mask-type:luminance" maskUnits="userSpaceOnUse" x="1" y="3" width="30" height="26">
<g id="Group">
<g id="Group_2">
<path id="Vector" d="M22.6667 27.3333L29.3334 16L22.6667 4.66666H9.33335L2.66669 16L9.33335 27.3333H22.6667Z" fill="white" stroke="white" stroke-width="3" stroke-linejoin="round"/>
<path id="Vector_2" d="M16 19.3333C16.8841 19.3333 17.7319 18.9821 18.357 18.357C18.9822 17.7319 19.3334 16.884 19.3334 16C19.3334 15.1159 18.9822 14.2681 18.357 13.643C17.7319 13.0178 16.8841 12.6667 16 12.6667C15.116 12.6667 14.2681 13.0178 13.643 13.643C13.0179 14.2681 12.6667 15.1159 12.6667 16C12.6667 16.884 13.0179 17.7319 13.643 18.357C14.2681 18.9821 15.116 19.3333 16 19.3333Z" fill="black" stroke="black" stroke-width="3" stroke-linejoin="round"/>
</g>
</g>
</mask>
<g mask="url(#mask0_48_278)">
<path id="Vector_3" d="M0 0H32V32H0V0Z" fill="#ED993B"/>
</g>
</g>
</g>
</svg>
