<svg width="32" height="32" viewBox="0 0 32 32" fill="none" xmlns="http://www.w3.org/2000/svg">
<g id="Settings">
<g id="Group">
<path id="Vector" d="M4.10934 18.5933C3.404 17.3267 3.052 16.692 3.052 16C3.052 15.308 3.404 14.6747 4.10934 13.408L5.90667 10.1733L7.808 6.99868C8.55333 5.75468 8.92534 5.13201 9.524 4.78535C10.124 4.44001 10.848 4.42935 12.2973 4.40535L16 4.34668L19.7 4.40535C21.1507 4.42935 21.8747 4.44001 22.4733 4.78668C23.0733 5.13335 23.4467 5.75468 24.1907 6.99868L26.0933 10.1733L27.8933 13.408C28.5973 14.6747 28.9493 15.308 28.9493 16C28.9493 16.692 28.5973 17.3253 27.892 18.592L26.0933 21.8267L24.192 25.0013C23.4467 26.2453 23.0747 26.868 22.476 27.2147C21.876 27.56 21.152 27.5707 19.7027 27.5947L16 27.6533L12.3 27.5947C10.8493 27.5707 10.1253 27.56 9.52667 27.2133C8.92667 26.8667 8.55333 26.2453 7.80933 25.0013L5.90667 21.8267L4.10934 18.5933Z" stroke="#E7CDAF" stroke-width="2.66667"/>
<path id="Vector_2" d="M16 20C18.2091 20 20 18.2091 20 16C20 13.7909 18.2091 12 16 12C13.7909 12 12 13.7909 12 16C12 18.2091 13.7909 20 16 20Z" stroke="#E7CDAF" stroke-width="2.66667"/>
</g>
</g>
</svg>
