<svg width="32" height="32" viewBox="0 0 32 32" fill="none" xmlns="http://www.w3.org/2000/svg">
<g id="mingcute:search-fill" clip-path="url(#clip0_534_2349)">
<g id="Group">
<path id="Vector" d="M14 2.66666C16.1279 2.66651 18.2129 3.26547 20.0164 4.39496C21.8198 5.52446 23.2688 7.13888 24.1976 9.05345C25.1264 10.968 25.4974 13.1054 25.2681 15.221C25.0389 17.3365 24.2186 19.3448 22.9013 21.016L27.7706 25.8853C28.0135 26.1368 28.1479 26.4736 28.1449 26.8232C28.1418 27.1728 28.0016 27.5072 27.7544 27.7544C27.5072 28.0016 27.1728 28.1418 26.8232 28.1449C26.4736 28.1479 26.1368 28.0135 25.8853 27.7707L21.016 22.9013C19.5966 24.0199 17.9302 24.7829 16.156 25.1265C14.3818 25.4702 12.5511 25.3846 10.8167 24.8768C9.08224 24.369 7.49441 23.4539 6.18562 22.2076C4.87683 20.9614 3.88505 19.4202 3.29301 17.7128C2.70097 16.0053 2.52585 14.181 2.78225 12.392C3.03865 10.6031 3.71914 8.90144 4.76695 7.42899C5.81476 5.95655 7.1995 4.75602 8.80565 3.92758C10.4118 3.09914 12.1928 2.66681 14 2.66666ZM14 5.33332C11.7014 5.33332 9.49703 6.24642 7.87171 7.87173C6.2464 9.49705 5.33331 11.7014 5.33331 14C5.33331 16.2985 6.2464 18.5029 7.87171 20.1282C9.49703 21.7536 11.7014 22.6667 14 22.6667C16.2985 22.6667 18.5029 21.7536 20.1282 20.1282C21.7535 18.5029 22.6666 16.2985 22.6666 14C22.6666 11.7014 21.7535 9.49705 20.1282 7.87173C18.5029 6.24642 16.2985 5.33332 14 5.33332ZM14 6.66666C15.9449 6.66666 17.8102 7.43927 19.1854 8.81454C20.5607 10.1898 21.3333 12.0551 21.3333 14C21.3333 15.9449 20.5607 17.8102 19.1854 19.1854C17.8102 20.5607 15.9449 21.3333 14 21.3333C12.0551 21.3333 10.1898 20.5607 8.81452 19.1854C7.43926 17.8102 6.66664 15.9449 6.66664 14C6.66664 12.0551 7.43926 10.1898 8.81452 8.81454C10.1898 7.43927 12.0551 6.66666 14 6.66666Z" fill="#ED993B"/>
</g>
</g>
<defs>
<clipPath id="clip0_534_2349">
<rect width="32" height="32" fill="white"/>
</clipPath>
</defs>
</svg>
