<svg width="400" height="400" viewBox="0 0 400 400" fill="none" xmlns="http://www.w3.org/2000/svg">
<path d="M199.999 -0.000488281C146.956 -0.000488281 96.0854 21.0709 58.5782 58.5782C21.0709 96.0854 -0.000488281 146.956 -0.000488281 199.999C-0.000488281 253.043 21.0709 303.914 58.5782 341.421C96.0854 378.928 146.956 399.999 199.999 399.999C253.043 399.999 303.914 378.928 341.421 341.421C378.928 303.914 399.999 253.043 399.999 199.999C399.999 146.956 378.928 96.0854 341.421 58.5782C303.914 21.0709 253.043 -0.000488281 199.999 -0.000488281ZM127.299 40.7495L187.549 75.8995V118.4L118.325 167.199L79.3245 153.025L63.6745 90.2245C80.7446 69.0071 102.531 52.0662 127.299 40.7495ZM25.8495 217.299L71.5245 176.799L110.175 190.825L136.299 273.074L118.375 299.9H56.2995C39.237 275.431 28.7514 246.988 25.8495 217.299ZM159.325 370.249L138.95 314.099L156.699 287.525H243.374L261.15 314.099L240.774 370.224C214.002 376.631 186.097 376.656 159.325 370.249ZM343.699 299.874H281.75L263.749 272.999L289.374 190.825L328.549 176.725L374.149 217.274C371.248 246.963 360.762 275.406 343.699 299.874ZM336.449 90.3745L320.799 152.949L281.199 167.199L212.525 118.4V75.8995L272.749 40.7495C297.561 52.0993 319.375 69.0933 336.449 90.3745Z" fill="white"/>
</svg>
