<svg width="99" height="99" viewBox="0 0 99 99" fill="none" xmlns="http://www.w3.org/2000/svg">
<g id="icon-park-outline:code-computer">
<g id="Group">
<path id="Vector" d="M43.3125 12.375H18.5625C16.9215 12.375 15.3477 13.0269 14.1873 14.1873C13.0269 15.3477 12.375 16.9215 12.375 18.5625V63.9375C12.375 65.5785 13.0269 67.1523 14.1873 68.3127C15.3477 69.4731 16.9215 70.125 18.5625 70.125H80.4375C82.0785 70.125 83.6523 69.4731 84.8127 68.3127C85.9731 67.1523 86.625 65.5785 86.625 63.9375V43.3125M49.5 70.125V86.625" stroke="white" stroke-width="8" stroke-linecap="round" stroke-linejoin="round"/>
<path id="Vector_2" d="M66 12.375L57.75 20.625L66 28.875M78.375 12.375L86.625 20.625L78.375 28.875M28.875 86.625H70.125" stroke="white" stroke-width="8" stroke-linecap="round" stroke-linejoin="round"/>
</g>
</g>
</svg>
