<svg width="422" height="360" viewBox="0 0 422 360" fill="none" xmlns="http://www.w3.org/2000/svg">
<path d="M382.875 0.3125H39.125C28.765 0.3125 18.8293 4.428 11.5036 11.7536C4.178 19.0793 0.0625 29.015 0.0625 39.375V242.5C0.0625 252.86 4.178 262.796 11.5036 270.121C18.8293 277.447 28.765 281.562 39.125 281.562H382.875C393.235 281.562 403.171 277.447 410.496 270.121C417.822 262.796 421.938 252.86 421.938 242.5V39.375C421.938 29.015 417.822 19.0793 410.496 11.7536C403.171 4.428 393.235 0.3125 382.875 0.3125ZM375.062 234.688H46.9375V47.1875H375.062V234.688ZM421.938 336.25C421.938 342.466 419.468 348.427 415.073 352.823C410.677 357.218 404.716 359.688 398.5 359.688H23.5C17.284 359.688 11.3226 357.218 6.92719 352.823C2.5318 348.427 0.0625 342.466 0.0625 336.25C0.0625 330.034 2.5318 324.073 6.92719 319.677C11.3226 315.282 17.284 312.812 23.5 312.812H398.5C404.716 312.812 410.677 315.282 415.073 319.677C419.468 324.073 421.938 330.034 421.938 336.25ZM164.125 180V101.875C164.124 97.6906 165.242 93.5822 167.365 89.9763C169.488 86.3704 172.538 83.3987 176.197 81.3696C179.857 79.3405 183.993 78.3282 188.176 78.4377C192.359 78.5471 196.436 79.7745 199.984 81.9922L262.484 121.055C265.859 123.161 268.642 126.091 270.571 129.569C272.5 133.048 273.513 136.96 273.513 140.938C273.513 144.915 272.5 148.827 270.571 152.306C268.642 155.784 265.859 158.714 262.484 160.82L199.984 199.883C196.436 202.101 192.359 203.328 188.176 203.437C183.993 203.547 179.857 202.534 176.197 200.505C172.538 198.476 169.488 195.505 167.365 191.899C165.242 188.293 164.124 184.184 164.125 180Z" fill="white"/>
</svg>
